<svg xmlns="http://www.w3.org/2000/svg" xmlns:xlink="http://www.w3.org/1999/xlink" width="1080" height="1080" viewBox="0 0 1080 1080">
  <defs>
    <clipPath id="clip-custom_3">
      <rect width="1080" height="1080"/>
    </clipPath>
  </defs>
  <g id="custom_3" data-name="custom – 3" clip-path="url(#clip-custom_3)">
    <line id="Line_1" data-name="Line 1" x1="1" y2="864" transform="translate(539.5 150.5)" fill="none" stroke="#000" stroke-linecap="round" stroke-width="80"/>
    <line id="Line_2" data-name="Line 2" x1="887" y2="2" transform="translate(67.5 760.5)" fill="none" stroke="#000" stroke-linecap="round" stroke-width="80"/>
    <path id="Polygon_1" data-name="Polygon 1" d="M72.519,31.448a20,20,0,0,1,34.962,0l56,100.745A20,20,0,0,1,146,161.91H34a20,20,0,0,1-17.481-29.717Z" transform="translate(450 -11)" fill="#131313"/>
    <path id="Polygon_2" data-name="Polygon 2" d="M72.746,29.433a20,20,0,0,1,34.508,0l55.093,93.982a20,20,0,0,1-17.254,30.114H34.907a20,20,0,0,1-17.254-30.114Z" transform="translate(1080 672) rotate(90)" fill="#131313"/>
    <g id="Plot_1" transform="translate(152.474 74.5)">
      <g id="Group_1" data-name="Group 1" transform="translate(112.3 50.5)">
        <path id="Path_1" data-name="Path 1" d="M112.3,50.5l.072.577L113.6,56.7l1.226,5.624,1.226,5.552,1.226,5.552L118.5,78.98l1.226,5.48,1.226,5.48,1.226,5.408,1.226,5.408,1.154,5.408,1.226,5.408,1.226,5.336,1.226,5.336,1.226,5.263,1.226,5.263,1.226,5.263,1.226,5.263,1.226,5.191,1.226,5.119,1.154,5.191,1.226,5.119,1.226,5.047,1.226,5.119,1.226,5.047,1.226,4.975,1.226,5.047,1.226,4.975,1.226,4.9,1.226,4.975L149,208.837l1.154,4.9,1.226,4.831,1.226,4.831,1.226,4.831,1.226,4.759,1.226,4.759,1.226,4.687,1.226,4.687,1.226,4.687,1.226,4.687,1.226,4.615,1.154,4.542,1.226,4.615,1.226,4.542,1.226,4.542,1.226,4.47,1.226,4.47,1.226,4.47,1.226,4.4,1.226,4.4,1.226,4.4,1.154,4.326,1.226,4.326,1.226,4.254,1.226,4.326,1.226,4.254,1.226,4.182,1.226,4.182,1.226,4.182,1.226,4.182,1.226,4.11,1.226,4.11,1.154,4.038,1.226,4.038,1.226,4.038,1.226,4.038,1.226,3.966,1.226,3.894,1.226,3.966,1.226,3.894,1.226,3.893,1.226,3.821,1.154,3.821,1.226,3.821,1.226,3.749,1.226,3.749,1.226,3.749,1.226,3.677,1.226,3.677,1.226,3.605,1.226,3.677,1.226,3.533,1.226,3.605,1.154,3.533,1.226,3.533,1.226,3.533,1.226,3.461,1.226,3.461,1.226,3.389,1.226,3.389,1.226,3.389,1.226,3.317,1.226,3.317,1.154,3.317,1.226,3.317,1.226,3.245,1.226,3.173,1.226,3.245,1.226,3.172,1.226,3.1,1.226,3.172,1.226,3.1,1.226,3.028,1.226,3.1,1.154,2.956,1.226,3.028,1.226,2.956,1.226,2.956,1.226,2.956,1.226,2.884,1.226,2.884,1.226,2.812,1.226,2.812,1.226,2.812,1.154,2.812,1.226,2.74,1.226,2.74,1.226,2.668,1.226,2.668,1.226,2.668,1.226,2.6,1.226,2.6,1.226,2.6,1.226,2.524,1.226,2.524,1.154,2.524,1.226,2.451,1.226,2.451L269.628,570l1.226,2.379,1.226,2.379,1.226,2.307,1.226,2.379,1.226,2.307,1.226,2.235,1.154,2.235,1.226,2.235,1.226,2.235,1.226,2.163,1.226,2.163,1.226,2.091,1.226,2.091,1.226,2.091,1.226,2.019,1.226,2.019,1.226,2.019,1.154,1.947,1.226,2.019L294,613.188l1.226,1.947,1.226,1.875,1.226,1.8,1.226,1.8,1.226,1.8,1.226,1.8,1.226,1.73,1.154,1.73,1.226,1.73,1.226,1.658,1.226,1.658,1.226,1.586,1.226,1.658,1.226,1.514,1.226,1.586,1.226,1.514,1.226,1.514,1.226,1.442,1.154,1.442,1.226,1.442,1.226,1.37,1.226,1.37,1.226,1.37,1.226,1.37,1.226,1.3,1.226,1.226,1.226,1.3,1.226,1.226,1.226,1.154,1.154,1.154,1.226,1.154,1.226,1.154,1.226,1.082,1.226,1.082,1.226,1.082,1.226,1.009,1.226,1.009,1.226.937,1.226.937,1.154.937,1.226.937,1.226.865,1.226.865,1.226.793,1.226.793,1.226.793,1.226.721,1.226.721,1.226.721L355,677.5l1.154.649,1.226.649,1.226.577,1.226.577,1.226.577,1.226.5,1.226.5,1.226.5,1.226.433,1.226.433,1.154.361,1.226.433,1.226.361,1.226.288,1.226.288,1.226.288,1.226.216,1.226.288,1.226.144,1.226.216,1.226.144,1.154.144,1.226.072,1.226.072,1.226.072H389.1l1.226-.072,1.226-.072,1.226-.072,1.154-.144,1.226-.144,1.226-.216,1.226-.144,1.226-.288,1.226-.216,1.226-.288,1.226-.288,1.226-.288,1.226-.361,1.226-.433,1.154-.361,1.226-.433,1.226-.433,1.226-.5,1.226-.5,1.226-.5,1.226-.577,1.226-.577,1.226-.577,1.226-.649,1.154-.649,1.226-.649,1.226-.721,1.226-.721,1.226-.721,1.226-.793,1.226-.793,1.226-.793,1.226-.865,1.226-.865,1.226-.937,1.154-.937,1.226-.937,1.226-.937,1.226-1.009,1.226-1.009,1.226-1.082,1.226-1.082,1.226-1.082,1.226-1.154,1.226-1.154,1.154-1.154,1.226-1.154,1.226-1.226,1.226-1.3,1.226-1.226,1.226-1.3,1.226-1.37,1.226-1.37,1.226-1.37,1.226-1.37,1.226-1.442,1.154-1.442,1.226-1.442,1.226-1.514,1.226-1.514,1.226-1.586,1.226-1.514,1.226-1.658,1.226-1.586,1.226-1.658,1.226-1.658,1.226-1.73,1.154-1.73,1.226-1.73,1.226-1.8,1.226-1.8,1.226-1.8,1.226-1.8,1.226-1.875,1.226-1.947,1.226-1.875,1.226-2.019,1.154-1.947,1.226-2.019,1.226-2.019,1.226-2.019,1.226-2.091,1.226-2.091,1.226-2.091,1.226-2.163,1.226-2.163,1.226-2.235,1.226-2.235,1.154-2.235,1.226-2.235L500,579.444l1.226-2.379,1.226-2.307,1.226-2.379L504.9,570l1.226-2.451,1.226-2.451,1.226-2.451,1.154-2.524,1.226-2.524,1.226-2.524,1.226-2.6,1.226-2.6,1.226-2.6,1.226-2.668,1.226-2.668,1.226-2.668,1.226-2.74,1.226-2.74,1.154-2.812,1.226-2.812,1.226-2.812,1.226-2.812,1.226-2.884,1.226-2.884,1.226-2.956,1.226-2.956,1.226-2.956,1.226-3.028,1.154-2.956,1.226-3.1,1.226-3.028L539,492.7l1.226-3.172,1.226-3.1,1.226-3.172,1.226-3.245,1.226-3.173,1.226-3.245,1.226-3.317,1.154-3.317,1.226-3.317,1.226-3.317,1.226-3.389,1.226-3.389,1.226-3.389,1.226-3.461,1.226-3.461,1.226-3.533,1.226-3.533,1.154-3.533,1.226-3.605,1.226-3.533,1.226-3.677,1.226-3.605,1.226-3.677,1.226-3.677,1.226-3.749,1.226-3.749,1.226-3.749,1.226-3.821,1.154-3.821,1.226-3.821,1.226-3.893,1.226-3.894,1.226-3.966,1.226-3.894,1.226-3.966,1.226-4.038,1.226-4.038,1.226-4.038,1.154-4.038,1.226-4.11,1.226-4.11,1.226-4.182,1.226-4.182,1.226-4.182,1.226-4.182,1.226-4.254,1.226-4.326,1.226-4.254,1.226-4.326,1.154-4.326,1.226-4.4,1.226-4.4,1.226-4.4,1.226-4.47,1.226-4.47,1.226-4.47,1.226-4.542,1.226-4.542,1.226-4.615,1.154-4.542,1.226-4.615,1.226-4.687,1.226-4.687,1.226-4.687,1.226-4.687,1.226-4.759,1.226-4.759,1.226-4.831,1.226-4.831,1.226-4.831,1.154-4.9,1.226-4.831,1.226-4.975,1.226-4.9,1.226-4.975,1.226-5.047,1.226-4.975,1.226-5.047,1.226-5.119,1.226-5.047,1.226-5.119,1.154-5.191,1.226-5.119,1.226-5.191,1.226-5.263,1.226-5.263,1.226-5.263,1.226-5.263,1.226-5.336,1.226-5.336,1.226-5.408,1.154-5.408,1.226-5.408,1.226-5.408,1.226-5.48,1.226-5.48,1.226-5.552,1.226-5.552,1.226-5.552,1.226-5.624,1.226-5.624.072-.577" transform="translate(-112.3 -50.5)" fill="none" stroke="#000" stroke-linecap="round" stroke-width="80"/>
      </g>
    </g>
    <circle id="Ellipse_2" data-name="Ellipse 2" cx="100" cy="100" r="100" transform="translate(440 661)"/>
  </g>
</svg>
